<svg version="1.1" viewBox="0.0 0.0 960.0 720.0" fill="none" stroke="none" stroke-linecap="square" stroke-miterlimit="10" xmlns:xlink="http://www.w3.org/1999/xlink" xmlns="http://www.w3.org/2000/svg"><clipPath id="p.0"><path d="m0 0l960.0 0l0 720.0l-960.0 0l0 -720.0z" clip-rule="nonzero"/></clipPath><g clip-path="url(#p.0)"><path fill="#000000" fill-opacity="0.0" d="m0 0l960.0 0l0 720.0l-960.0 0z" fill-rule="evenodd"/><path fill="#cfe2f3" d="m368.24408 87.93964l163.05511 0l0 163.05511l-163.05511 0z" fill-rule="evenodd"/><path stroke="#000000" stroke-width="1.0" stroke-linejoin="round" stroke-linecap="butt" d="m368.24408 87.93964l163.05511 0l0 163.05511l-163.05511 0z" fill-rule="evenodd"/><path fill="#cfe2f3" d="m369.1601 96.947685l0 0c0 -4.975006 4.0330505 -9.008049 9.008057 -9.008049l36.031128 0l0 0c2.3890991 0 4.6803284 0.94905853 6.3696594 2.6383972c1.6893616 1.6893387 2.6383972 3.980568 2.6383972 6.369652l0 36.031136c0 4.975006 -4.03302 9.008057 -9.008057 9.008057l-36.031128 0c-4.975006 0 -9.008057 -4.0330505 -9.008057 -9.008057z" fill-rule="evenodd"/><path stroke="#000000" stroke-width="1.0" stroke-linejoin="round" stroke-linecap="butt" d="m369.1601 96.947685l0 0c0 -4.975006 4.0330505 -9.008049 9.008057 -9.008049l36.031128 0l0 0c2.3890991 0 4.6803284 0.94905853 6.3696594 2.6383972c1.6893616 1.6893387 2.6383972 3.980568 2.6383972 6.369652l0 36.031136c0 4.975006 -4.03302 9.008057 -9.008057 9.008057l-36.031128 0c-4.975006 0 -9.008057 -4.0330505 -9.008057 -9.008057z" fill-rule="evenodd"/><path fill="#000000" d="m390.04007 121.883255l5.171875 -6.953125l-4.5625 -6.40625l2.109375 0l2.421875 3.4375q0.75 1.0625 1.078125 1.625q0.4375 -0.71875 1.046875 -1.515625l2.6875 -3.546875l1.921875 0l-4.6875 6.296875l5.0625 7.0625l-2.1875 0l-3.359375 -4.765625q-0.28125 -0.40625 -0.59375 -0.890625q-0.4375 0.734375 -0.625 1.0l-3.359375 4.65625l-2.125 0z" fill-rule="nonzero"/><path fill="#cfe2f3" d="m423.20734 96.947685l0 0c0 -4.975006 4.0330505 -9.008049 9.008057 -9.008049l36.03116 0l0 0c2.3890686 0 4.680298 0.94905853 6.369629 2.6383972c1.6893616 1.6893387 2.6384277 3.980568 2.6384277 6.369652l0 36.031136c0 4.975006 -4.0330505 9.008057 -9.008057 9.008057l-36.03116 0c-4.975006 0 -9.008057 -4.0330505 -9.008057 -9.008057z" fill-rule="evenodd"/><path stroke="#000000" stroke-width="1.0" stroke-linejoin="round" stroke-linecap="butt" d="m423.20734 96.947685l0 0c0 -4.975006 4.0330505 -9.008049 9.008057 -9.008049l36.03116 0l0 0c2.3890686 0 4.680298 0.94905853 6.369629 2.6383972c1.6893616 1.6893387 2.6384277 3.980568 2.6384277 6.369652l0 36.031136c0 4.975006 -4.0330505 9.008057 -9.008057 9.008057l-36.03116 0c-4.975006 0 -9.008057 -4.0330505 -9.008057 -9.008057z" fill-rule="evenodd"/><path fill="#000000" d="m443.8815 115.383255q0 -3.328125 1.78125 -5.203125q1.78125 -1.890625 4.609375 -1.890625q1.84375 0 3.328125 0.890625q1.484375 0.875 2.265625 2.46875q0.78125 1.578125 0.78125 3.578125q0 2.03125 -0.828125 3.640625q-0.8125 1.59375 -2.3125 2.421875q-1.5 0.828125 -3.25 0.828125q-1.875 0 -3.359375 -0.90625q-1.484375 -0.921875 -2.25 -2.5q-0.765625 -1.578125 -0.765625 -3.328125zm1.8125 0.015625q0 2.421875 1.296875 3.8125q1.296875 1.390625 3.265625 1.390625q2.0 0 3.28125 -1.40625q1.28125 -1.40625 1.28125 -3.984375q0 -1.625 -0.546875 -2.84375q-0.546875 -1.21875 -1.609375 -1.875q-1.0625 -0.671875 -2.375 -0.671875q-1.890625 0 -3.25 1.296875q-1.34375 1.28125 -1.34375 4.28125z" fill-rule="nonzero"/><path fill="#cfe2f3" d="m477.2546 96.947685l0 0c0 -4.975006 4.03302 -9.008049 9.008026 -9.008049l36.031128 0l0 0c2.3890991 0 4.680359 0.94905853 6.36969 2.6383972c1.689331 1.6893387 2.6383667 3.980568 2.6383667 6.369652l0 36.031136c0 4.975006 -4.03302 9.008057 -9.008057 9.008057l-36.031128 0c-4.975006 0 -9.008026 -4.0330505 -9.008026 -9.008057z" fill-rule="evenodd"/><path stroke="#000000" stroke-width="1.0" stroke-linejoin="round" stroke-linecap="butt" d="m477.2546 96.947685l0 0c0 -4.975006 4.03302 -9.008049 9.008026 -9.008049l36.031128 0l0 0c2.3890991 0 4.680359 0.94905853 6.36969 2.6383972c1.689331 1.6893387 2.6383667 3.980568 2.6383667 6.369652l0 36.031136c0 4.975006 -4.03302 9.008057 -9.008057 9.008057l-36.031128 0c-4.975006 0 -9.008026 -4.0330505 -9.008026 -9.008057z" fill-rule="evenodd"/><path fill="#000000" d="m498.13455 121.883255l5.171875 -6.953125l-4.5625 -6.40625l2.109375 0l2.421875 3.4375q0.75 1.0625 1.078125 1.625q0.4375 -0.71875 1.046875 -1.515625l2.6875 -3.546875l1.921875 0l-4.6875 6.296875l5.0625 7.0625l-2.1875 0l-3.359375 -4.765625q-0.28125 -0.40625 -0.59375 -0.890625q-0.4375 0.734375 -0.625 1.0l-3.359375 4.65625l-2.125 0z" fill-rule="nonzero"/><path fill="#cfe2f3" d="m369.1601 151.45163l0 0c0 -4.9750214 4.0330505 -9.008057 9.008057 -9.008057l36.031128 0l0 0c2.3890991 0 4.6803284 0.9490509 6.3696594 2.6383972c1.6893616 1.689331 2.6383972 3.9805756 2.6383972 6.3696594l0 36.031128c0 4.975006 -4.03302 9.008057 -9.008057 9.008057l-36.031128 0c-4.975006 0 -9.008057 -4.0330505 -9.008057 -9.008057z" fill-rule="evenodd"/><path stroke="#000000" stroke-width="1.0" stroke-linejoin="round" stroke-linecap="butt" d="m369.1601 151.45163l0 0c0 -4.9750214 4.0330505 -9.008057 9.008057 -9.008057l36.031128 0l0 0c2.3890991 0 4.6803284 0.9490509 6.3696594 2.6383972c1.6893616 1.689331 2.6383972 3.9805756 2.6383972 6.3696594l0 36.031128c0 4.975006 -4.03302 9.008057 -9.008057 9.008057l-36.031128 0c-4.975006 0 -9.008057 -4.0330505 -9.008057 -9.008057z" fill-rule="evenodd"/><path fill="#cfe2f3" d="m423.20734 151.45163l0 0c0 -4.9750214 4.0330505 -9.008057 9.008057 -9.008057l36.03116 0l0 0c2.3890686 0 4.680298 0.9490509 6.369629 2.6383972c1.6893616 1.689331 2.6384277 3.9805756 2.6384277 6.3696594l0 36.031128c0 4.975006 -4.0330505 9.008057 -9.008057 9.008057l-36.03116 0c-4.975006 0 -9.008057 -4.0330505 -9.008057 -9.008057z" fill-rule="evenodd"/><path stroke="#000000" stroke-width="1.0" stroke-linejoin="round" stroke-linecap="butt" d="m423.20734 151.45163l0 0c0 -4.9750214 4.0330505 -9.008057 9.008057 -9.008057l36.03116 0l0 0c2.3890686 0 4.680298 0.9490509 6.369629 2.6383972c1.6893616 1.689331 2.6384277 3.9805756 2.6384277 6.3696594l0 36.031128c0 4.975006 -4.0330505 9.008057 -9.008057 9.008057l-36.03116 0c-4.975006 0 -9.008057 -4.0330505 -9.008057 -9.008057z" fill-rule="evenodd"/><path fill="#000000" d="m444.0873 176.38719l5.171875 -6.953125l-4.5625 -6.40625l2.109375 0l2.421875 3.4375q0.75 1.0625 1.078125 1.625q0.4375 -0.71875 1.046875 -1.515625l2.6875 -3.546875l1.921875 0l-4.6875 6.296875l5.0625 7.0625l-2.1875 0l-3.359375 -4.765625q-0.28125 -0.40625 -0.59375 -0.890625q-0.4375 0.734375 -0.625 1.0l-3.359375 4.65625l-2.125 0z" fill-rule="nonzero"/><path fill="#cfe2f3" d="m477.2546 151.45163l0 0c0 -4.9750214 4.03302 -9.008057 9.008026 -9.008057l36.031128 0l0 0c2.3890991 0 4.680359 0.9490509 6.36969 2.6383972c1.689331 1.689331 2.6383667 3.9805756 2.6383667 6.3696594l0 36.031128c0 4.975006 -4.03302 9.008057 -9.008057 9.008057l-36.031128 0c-4.975006 0 -9.008026 -4.0330505 -9.008026 -9.008057z" fill-rule="evenodd"/><path stroke="#000000" stroke-width="1.0" stroke-linejoin="round" stroke-linecap="butt" d="m477.2546 151.45163l0 0c0 -4.9750214 4.03302 -9.008057 9.008026 -9.008057l36.031128 0l0 0c2.3890991 0 4.680359 0.9490509 6.36969 2.6383972c1.689331 1.689331 2.6383667 3.9805756 2.6383667 6.3696594l0 36.031128c0 4.975006 -4.03302 9.008057 -9.008057 9.008057l-36.031128 0c-4.975006 0 -9.008026 -4.0330505 -9.008026 -9.008057z" fill-rule="evenodd"/><path fill="#cfe2f3" d="m369.1601 205.95557l0 0c0 -4.9750214 4.0330505 -9.008057 9.008057 -9.008057l36.031128 0l0 0c2.3890991 0 4.6803284 0.9490509 6.3696594 2.6383972c1.6893616 1.689331 2.6383972 3.9805756 2.6383972 6.3696594l0 36.031128c0 4.975006 -4.03302 9.008057 -9.008057 9.008057l-36.031128 0c-4.975006 0 -9.008057 -4.0330505 -9.008057 -9.008057z" fill-rule="evenodd"/><path stroke="#000000" stroke-width="1.0" stroke-linejoin="round" stroke-linecap="butt" d="m369.1601 205.95557l0 0c0 -4.9750214 4.0330505 -9.008057 9.008057 -9.008057l36.031128 0l0 0c2.3890991 0 4.6803284 0.9490509 6.3696594 2.6383972c1.6893616 1.689331 2.6383972 3.9805756 2.6383972 6.3696594l0 36.031128c0 4.975006 -4.03302 9.008057 -9.008057 9.008057l-36.031128 0c-4.975006 0 -9.008057 -4.0330505 -9.008057 -9.008057z" fill-rule="evenodd"/><path fill="#cfe2f3" d="m423.20734 205.95557l0 0c0 -4.9750214 4.0330505 -9.008057 9.008057 -9.008057l36.03116 0l0 0c2.3890686 0 4.680298 0.9490509 6.369629 2.6383972c1.6893616 1.689331 2.6384277 3.9805756 2.6384277 6.3696594l0 36.031128c0 4.975006 -4.0330505 9.008057 -9.008057 9.008057l-36.03116 0c-4.975006 0 -9.008057 -4.0330505 -9.008057 -9.008057z" fill-rule="evenodd"/><path stroke="#000000" stroke-width="1.0" stroke-linejoin="round" stroke-linecap="butt" d="m423.20734 205.95557l0 0c0 -4.9750214 4.0330505 -9.008057 9.008057 -9.008057l36.03116 0l0 0c2.3890686 0 4.680298 0.9490509 6.369629 2.6383972c1.6893616 1.689331 2.6384277 3.9805756 2.6384277 6.3696594l0 36.031128c0 4.975006 -4.0330505 9.008057 -9.008057 9.008057l-36.03116 0c-4.975006 0 -9.008057 -4.0330505 -9.008057 -9.008057z" fill-rule="evenodd"/><path fill="#cfe2f3" d="m477.2546 205.95557l0 0c0 -4.9750214 4.03302 -9.008057 9.008026 -9.008057l36.031128 0l0 0c2.3890991 0 4.680359 0.9490509 6.36969 2.6383972c1.689331 1.689331 2.6383667 3.9805756 2.6383667 6.3696594l0 36.031128c0 4.975006 -4.03302 9.008057 -9.008057 9.008057l-36.031128 0c-4.975006 0 -9.008026 -4.0330505 -9.008026 -9.008057z" fill-rule="evenodd"/><path stroke="#000000" stroke-width="1.0" stroke-linejoin="round" stroke-linecap="butt" d="m477.2546 205.95557l0 0c0 -4.9750214 4.03302 -9.008057 9.008026 -9.008057l36.031128 0l0 0c2.3890991 0 4.680359 0.9490509 6.36969 2.6383972c1.689331 1.689331 2.6383667 3.9805756 2.6383667 6.3696594l0 36.031128c0 4.975006 -4.03302 9.008057 -9.008057 9.008057l-36.031128 0c-4.975006 0 -9.008026 -4.0330505 -9.008026 -9.008057z" fill-rule="evenodd"/><path fill="#000000" d="m497.92874 224.39113q0 -3.328125 1.78125 -5.203125q1.78125 -1.890625 4.609375 -1.890625q1.84375 0 3.328125 0.890625q1.484375 0.875 2.265625 2.46875q0.78125 1.578125 0.78125 3.578125q0 2.03125 -0.828125 3.640625q-0.8125 1.59375 -2.3125 2.421875q-1.5 0.828125 -3.25 0.828125q-1.875 0 -3.359375 -0.90625q-1.484375 -0.921875 -2.25 -2.5q-0.765625 -1.578125 -0.765625 -3.328125zm1.8125 0.015625q0 2.421875 1.296875 3.8125q1.296875 1.390625 3.265625 1.390625q2.0 0 3.28125 -1.40625q1.28125 -1.40625 1.28125 -3.984375q0 -1.625 -0.546875 -2.84375q-0.546875 -1.21875 -1.609375 -1.875q-1.0625 -0.671875 -2.375 -0.671875q-1.890625 0 -3.25 1.296875q-1.34375 1.28125 -1.34375 4.28125z" fill-rule="nonzero"/><path fill="#cfe2f3" d="m323.2049 374.34647l36.03116 0l0 0c2.3890686 0 4.680298 0.94903564 6.369629 2.6383972c1.6893616 1.689331 2.6383972 3.9805603 2.6383972 6.3696594l0 80.75571c0 2.4414062E-4 -1.8310547E-4 4.5776367E-4 -4.272461E-4 4.5776367E-4l-54.046814 -4.5776367E-4l0 0c-2.4414062E-4 0 -4.272461E-4 -1.8310547E-4 -4.272461E-4 -4.5776367E-4l4.272461E-4 -80.75525l0 0c0 -4.9750366 4.0330505 -9.008057 9.008057 -9.008057z" fill-rule="evenodd"/><path stroke="#000000" stroke-width="1.0" stroke-linejoin="round" stroke-linecap="butt" d="m323.2049 374.34647l36.03116 0l0 0c2.3890686 0 4.680298 0.94903564 6.369629 2.6383972c1.6893616 1.689331 2.6383972 3.9805603 2.6383972 6.3696594l0 80.75571c0 2.4414062E-4 -1.8310547E-4 4.5776367E-4 -4.272461E-4 4.5776367E-4l-54.046814 -4.5776367E-4l0 0c-2.4414062E-4 0 -4.272461E-4 -1.8310547E-4 -4.272461E-4 -4.5776367E-4l4.272461E-4 -80.75525l0 0c0 -4.9750366 4.0330505 -9.008057 9.008057 -9.008057z" fill-rule="evenodd"/><path fill="#000000" d="m335.0768 403.90482l5.171875 -6.953125l-4.5625 -6.40625l2.109375 0l2.421875 3.4375q0.75 1.0625 1.078125 1.625q0.4375 -0.71875 1.046875 -1.515625l2.6875 -3.546875l1.921875 0l-4.6875 6.296875l5.0625 7.0625l-2.1875 0l-3.359375 -4.765625q-0.28125 -0.40625 -0.59375 -0.890625q-0.4375 0.734375 -0.625 1.0l-3.359375 4.65625l-2.125 0z" fill-rule="nonzero"/><path fill="#cfe2f3" d="m321.99213 355.1181l0 0c0 -10.619507 8.608826 -19.228333 19.228333 -19.228333c10.619537 0 19.228363 8.608826 19.228363 19.228333c0 10.619537 -8.608826 19.228363 -19.228363 19.228363c-10.619507 0 -19.228333 -8.608826 -19.228333 -19.228363z" fill-rule="evenodd"/><path fill="#a5b4c2" d="m333.0573 349.3674c0 -1.1062012 0.89675903 -2.0029297 2.0029602 -2.0029297c1.1062012 0 2.0029602 0.8967285 2.0029602 2.0029297c0 1.1062012 -0.89675903 2.0029602 -2.0029602 2.0029602c-1.1062012 0 -2.0029602 -0.89675903 -2.0029602 -2.0029602m12.320404 0c0 -1.1062012 0.89675903 -2.0029297 2.0029602 -2.0029297c1.1062012 0 2.0029297 0.8967285 2.0029297 2.0029297c0 1.1062012 -0.8967285 2.0029602 -2.0029297 2.0029602c-1.1062012 0 -2.0029602 -0.89675903 -2.0029602 -2.0029602" fill-rule="evenodd"/><path fill="#000000" fill-opacity="0.0" d="m330.79858 363.50372q10.421875 7.1575623 20.819427 0" fill-rule="evenodd"/><path fill="#000000" fill-opacity="0.0" d="m321.99213 355.1181l0 0c0 -10.619507 8.608826 -19.228333 19.228333 -19.228333c10.619537 0 19.228363 8.608826 19.228363 19.228333c0 10.619537 -8.608826 19.228363 -19.228363 19.228363c-10.619507 0 -19.228333 -8.608826 -19.228333 -19.228363z" fill-rule="evenodd"/><path stroke="#000000" stroke-width="1.0" stroke-linejoin="round" stroke-linecap="butt" d="m333.0573 349.3674c0 -1.1062012 0.89675903 -2.0029297 2.0029602 -2.0029297c1.1062012 0 2.0029602 0.8967285 2.0029602 2.0029297c0 1.1062012 -0.89675903 2.0029602 -2.0029602 2.0029602c-1.1062012 0 -2.0029602 -0.89675903 -2.0029602 -2.0029602m12.320404 0c0 -1.1062012 0.89675903 -2.0029297 2.0029602 -2.0029297c1.1062012 0 2.0029297 0.8967285 2.0029297 2.0029297c0 1.1062012 -0.8967285 2.0029602 -2.0029297 2.0029602c-1.1062012 0 -2.0029602 -0.89675903 -2.0029602 -2.0029602" fill-rule="evenodd"/><path stroke="#000000" stroke-width="1.0" stroke-linejoin="round" stroke-linecap="butt" d="m330.79858 363.50372q10.421875 7.1575623 20.819427 0" fill-rule="evenodd"/><path stroke="#000000" stroke-width="1.0" stroke-linejoin="round" stroke-linecap="butt" d="m321.99213 355.1181l0 0c0 -10.619507 8.608826 -19.228333 19.228333 -19.228333c10.619537 0 19.228363 8.608826 19.228363 19.228333c0 10.619537 -8.608826 19.228363 -19.228363 19.228363c-10.619507 0 -19.228333 -8.608826 -19.228333 -19.228363z" fill-rule="evenodd"/><path fill="#cfe2f3" d="m540.3099 374.34647l36.031128 0l0 0c2.3890991 0 4.680359 0.94903564 6.36969 2.6383972c1.689331 1.689331 2.6383667 3.9805603 2.6383667 6.3696594l0 80.75571c0 2.4414062E-4 -1.8310547E-4 4.5776367E-4 -4.272461E-4 4.5776367E-4l-54.046814 -4.5776367E-4l0 0c-2.4414062E-4 0 -4.272461E-4 -1.8310547E-4 -4.272461E-4 -4.5776367E-4l4.272461E-4 -80.75525l0 0c0 -4.9750366 4.033081 -9.008057 9.008057 -9.008057z" fill-rule="evenodd"/><path stroke="#000000" stroke-width="1.0" stroke-linejoin="round" stroke-linecap="butt" d="m540.3099 374.34647l36.031128 0l0 0c2.3890991 0 4.680359 0.94903564 6.36969 2.6383972c1.689331 1.689331 2.6383667 3.9805603 2.6383667 6.3696594l0 80.75571c0 2.4414062E-4 -1.8310547E-4 4.5776367E-4 -4.272461E-4 4.5776367E-4l-54.046814 -4.5776367E-4l0 0c-2.4414062E-4 0 -4.272461E-4 -1.8310547E-4 -4.272461E-4 -4.5776367E-4l4.272461E-4 -80.75525l0 0c0 -4.9750366 4.033081 -9.008057 9.008057 -9.008057z" fill-rule="evenodd"/><path fill="#000000" d="m551.976 397.40482q0 -3.328125 1.78125 -5.203125q1.78125 -1.890625 4.609375 -1.890625q1.84375 0 3.328125 0.890625q1.484375 0.875 2.265625 2.46875q0.78125 1.578125 0.78125 3.578125q0 2.03125 -0.828125 3.640625q-0.8125 1.59375 -2.3125 2.421875q-1.5 0.828125 -3.25 0.828125q-1.875 0 -3.359375 -0.90625q-1.484375 -0.921875 -2.25 -2.5q-0.765625 -1.578125 -0.765625 -3.328125zm1.8125 0.015625q0 2.421875 1.296875 3.8125q1.296875 1.390625 3.265625 1.390625q2.0 0 3.28125 -1.40625q1.28125 -1.40625 1.28125 -3.984375q0 -1.625 -0.546875 -2.84375q-0.546875 -1.21875 -1.609375 -1.875q-1.0625 -0.671875 -2.375 -0.671875q-1.890625 0 -3.25 1.296875q-1.34375 1.28125 -1.34375 4.28125z" fill-rule="nonzero"/><path fill="#cfe2f3" d="m539.0971 355.1181l0 0c0 -10.619507 8.608826 -19.228333 19.228333 -19.228333c10.619568 0 19.228394 8.608826 19.228394 19.228333c0 10.619537 -8.608826 19.228363 -19.228394 19.228363c-10.619507 0 -19.228333 -8.608826 -19.228333 -19.228363z" fill-rule="evenodd"/><path fill="#a5b4c2" d="m550.1623 349.3674c0 -1.1062012 0.89678955 -2.0029297 2.0029907 -2.0029297c1.1062012 0 2.0029297 0.8967285 2.0029297 2.0029297c0 1.1062012 -0.8967285 2.0029602 -2.0029297 2.0029602c-1.1062012 0 -2.0029907 -0.89675903 -2.0029907 -2.0029602m12.320435 0c0 -1.1062012 0.8967285 -2.0029297 2.0029297 -2.0029297c1.1062012 0 2.0029297 0.8967285 2.0029297 2.0029297c0 1.1062012 -0.8967285 2.0029602 -2.0029297 2.0029602c-1.1062012 0 -2.0029297 -0.89675903 -2.0029297 -2.0029602" fill-rule="evenodd"/><path fill="#000000" fill-opacity="0.0" d="m547.90356 363.50372q10.421875 7.1575623 20.819458 0" fill-rule="evenodd"/><path fill="#000000" fill-opacity="0.0" d="m539.0971 355.1181l0 0c0 -10.619507 8.608826 -19.228333 19.228333 -19.228333c10.619568 0 19.228394 8.608826 19.228394 19.228333c0 10.619537 -8.608826 19.228363 -19.228394 19.228363c-10.619507 0 -19.228333 -8.608826 -19.228333 -19.228363z" fill-rule="evenodd"/><path stroke="#000000" stroke-width="1.0" stroke-linejoin="round" stroke-linecap="butt" d="m550.1623 349.3674c0 -1.1062012 0.89678955 -2.0029297 2.0029907 -2.0029297c1.1062012 0 2.0029297 0.8967285 2.0029297 2.0029297c0 1.1062012 -0.8967285 2.0029602 -2.0029297 2.0029602c-1.1062012 0 -2.0029907 -0.89675903 -2.0029907 -2.0029602m12.320435 0c0 -1.1062012 0.8967285 -2.0029297 2.0029297 -2.0029297c1.1062012 0 2.0029297 0.8967285 2.0029297 2.0029297c0 1.1062012 -0.8967285 2.0029602 -2.0029297 2.0029602c-1.1062012 0 -2.0029297 -0.89675903 -2.0029297 -2.0029602" fill-rule="evenodd"/><path stroke="#000000" stroke-width="1.0" stroke-linejoin="round" stroke-linecap="butt" d="m547.90356 363.50372q10.421875 7.1575623 20.819458 0" fill-rule="evenodd"/><path stroke="#000000" stroke-width="1.0" stroke-linejoin="round" stroke-linecap="butt" d="m539.0971 355.1181l0 0c0 -10.619507 8.608826 -19.228333 19.228333 -19.228333c10.619568 0 19.228394 8.608826 19.228394 19.228333c0 10.619537 -8.608826 19.228363 -19.228394 19.228363c-10.619507 0 -19.228333 -8.608826 -19.228333 -19.228363z" fill-rule="evenodd"/><path fill="#000000" fill-opacity="0.0" d="m368.24408 250.07611l-103.49606 213.44882" fill-rule="evenodd"/><path stroke="#000000" stroke-width="1.0" stroke-linejoin="round" stroke-linecap="butt" stroke-dasharray="4.0,3.0" d="m368.24408 250.07611l-103.49606 213.44882" fill-rule="evenodd"/><path fill="#000000" fill-opacity="0.0" d="m533.1286 251.90814l103.49609 213.44882" fill-rule="evenodd"/><path stroke="#000000" stroke-width="1.0" stroke-linejoin="round" stroke-linecap="butt" stroke-dasharray="4.0,3.0" d="m533.1286 251.90814l103.49609 213.44882" fill-rule="evenodd"/><path fill="#000000" fill-opacity="0.0" d="m368.24408 419.22833l163.05511 0" fill-rule="evenodd"/><path stroke="#000000" stroke-width="1.0" stroke-linejoin="round" stroke-linecap="butt" stroke-dasharray="1.0,3.0" d="m368.24408 419.22833l163.05511 0" fill-rule="evenodd"/><path fill="#000000" fill-opacity="0.0" d="m450.23096 250.99475l1.3858337 168.53543" fill-rule="evenodd"/><path stroke="#000000" stroke-width="1.0" stroke-linejoin="round" stroke-linecap="butt" stroke-dasharray="1.0,3.0" d="m450.23096 250.99475l1.3858337 168.53543" fill-rule="evenodd"/><path fill="#000000" fill-opacity="0.0" d="m422.54593 345.58792l0 -60.472443l38.456696 0l0 60.472443z" fill-rule="evenodd"/><path fill="#999999" d="m449.46594 329.6348l0 1.640625l-10.453125 0q0.5625 0.59375 1.140625 1.5625q0.5625 0.953125 0.84375 1.71875l-1.59375 0q-0.640625 -1.375 -1.5625 -2.40625q-0.921875 -1.03125 -1.78125 -1.453125l0 -1.0625l13.40625 0zm-6.59375 -4.203827q-2.359375 0 -3.796875 -0.484375q-1.453125 -0.484375 -2.234375 -1.4375q-0.78125 -0.96875 -0.78125 -2.421875q0 -1.078125 0.4375 -1.890625q0.421875 -0.8125 1.25 -1.328125q0.8125 -0.53125 1.984375 -0.828125q1.15625 -0.3125 3.140625 -0.3125q2.359375 0 3.8125 0.484375q1.4375 0.484375 2.234375 1.453125q0.78125 0.953125 0.78125 2.421875q0 1.921875 -1.390625 3.03125q-1.671875 1.3125 -5.4375 1.3125zm0 -1.671875q3.296875 0 4.390625 -0.765625q1.078125 -0.78125 1.078125 -1.90625q0 -1.140625 -1.09375 -1.90625q-1.09375 -0.765625 -4.375 -0.765625q-3.296875 0 -4.375 0.765625q-1.078125 0.765625 -1.078125 1.921875q0 1.125 0.953125 1.796875q1.21875 0.859375 4.5 0.859375zm0 -8.703857q-2.359375 0 -3.796875 -0.484375q-1.453125 -0.484375 -2.234375 -1.4375q-0.78125 -0.96875 -0.78125 -2.421875q0 -1.078125 0.4375 -1.890625q0.421875 -0.8125 1.25 -1.328125q0.8125 -0.53125 1.984375 -0.828125q1.15625 -0.3125 3.140625 -0.3125q2.359375 0 3.8125 0.484375q1.4375 0.484375 2.234375 1.453125q0.78125 0.953125 0.78125 2.421875q0 1.921875 -1.390625 3.03125q-1.671875 1.3125 -5.4375 1.3125zm0 -1.671875q3.296875 0 4.390625 -0.765625q1.078125 -0.78125 1.078125 -1.90625q0 -1.140625 -1.09375 -1.90625q-1.09375 -0.765625 -4.375 -0.765625q-3.296875 0 -4.375 0.765625q-1.078125 0.765625 -1.078125 1.921875q0 1.125 0.953125 1.796875q1.21875 0.859375 4.5 0.859375zm-5.0 -9.047577l-1.890625 0l0 -1.765625l1.5 0q1.21875 0 1.75 0.28125q0.75 0.390625 1.109375 1.21875l-0.640625 0.40625q-0.203125 -0.484375 -0.625 -0.71875q-0.4375 -0.25 -1.203125 -0.28125l0 0.859375z" fill-rule="nonzero"/><path fill="#000000" fill-opacity="0.0" d="m426.41864 411.22833l48.53543 0l0 42.015747l-48.53543 0z" fill-rule="evenodd"/><path fill="#999999" d="m436.1999 434.64835l1.71875 -0.140625q0.1875 1.25 0.875 1.890625q0.703125 0.625 1.6875 0.625q1.1875 0 2.0 -0.890625q0.828125 -0.890625 0.828125 -2.359375q0 -1.40625 -0.796875 -2.21875q-0.78125 -0.8125 -2.0625 -0.8125q-0.78125 0 -1.421875 0.359375q-0.640625 0.359375 -1.0 0.9375l-1.546875 -0.203125l1.296875 -6.859375l6.640625 0l0 1.5625l-5.328125 0l-0.71875 3.59375q1.203125 -0.84375 2.515625 -0.84375q1.75 0 2.953125 1.21875q1.203125 1.203125 1.203125 3.109375q0 1.8125 -1.046875 3.140625q-1.296875 1.625 -3.515625 1.625q-1.8125 0 -2.96875 -1.015625q-1.15625 -1.03125 -1.3125 -2.71875zm10.375702 -3.09375q0 -2.359375 0.484375 -3.796875q0.484375 -1.453125 1.4375 -2.234375q0.96875 -0.78125 2.421875 -0.78125q1.078125 0 1.890625 0.4375q0.8125 0.421875 1.328125 1.25q0.53125 0.8125 0.828125 1.984375q0.3125 1.15625 0.3125 3.140625q0 2.359375 -0.484375 3.8125q-0.484375 1.4375 -1.453125 2.234375q-0.953125 0.78125 -2.421875 0.78125q-1.921875 0 -3.03125 -1.390625q-1.3125 -1.671875 -1.3125 -5.4375zm1.671875 0q0 3.296875 0.765625 4.390625q0.78125 1.078125 1.90625 1.078125q1.140625 0 1.90625 -1.09375q0.765625 -1.09375 0.765625 -4.375q0 -3.296875 -0.765625 -4.375q-0.765625 -1.078125 -1.921875 -1.078125q-1.125 0 -1.796875 0.953125q-0.859375 1.21875 -0.859375 4.5zm9.047607 -5.0l0 -1.890625l1.765625 0l0 1.5q0 1.21875 -0.28125 1.75q-0.390625 0.75 -1.21875 1.109375l-0.40625 -0.640625q0.484375 -0.203125 0.71875 -0.625q0.25 -0.4375 0.28125 -1.203125l-0.859375 0z" fill-rule="nonzero"/><path fill="#000000" fill-opacity="0.0" d="m335.95013 183.70341l0 -60.472443l38.456696 0l0 60.472443z" fill-rule="evenodd"/><path fill="#999999" d="m359.33887 173.92216l-0.21875 -1.640625q1.40625 -0.28125 2.015625 -0.953125q0.609375 -0.6875 0.609375 -1.65625q0 -1.15625 -0.796875 -1.953125q-0.796875 -0.796875 -1.984375 -0.796875q-1.125 0 -1.859375 0.734375q-0.734375 0.734375 -0.734375 1.875q0 0.46875 0.171875 1.15625l-1.4375 -0.1875q0.015625 -0.15625 0.015625 -0.265625q0 -1.046875 -0.546875 -1.875q-0.546875 -0.84375 -1.671875 -0.84375q-0.90625 0 -1.5 0.609375q-0.59375 0.609375 -0.59375 1.578125q0 0.953125 0.609375 1.59375q0.59375 0.640625 1.796875 0.8125l-0.296875 1.640625q-1.640625 -0.296875 -2.546875 -1.359375q-0.90625 -1.0625 -0.90625 -2.65625q0 -1.09375 0.46875 -2.0q0.46875 -0.921875 1.28125 -1.40625q0.8125 -0.5 1.71875 -0.5q0.859375 0 1.578125 0.46875q0.703125 0.46875 1.125 1.375q0.28125 -1.1875 1.140625 -1.84375q0.859375 -0.65625 2.15625 -0.65625q1.734375 0 2.953125 1.28125q1.21875 1.265625 1.21875 3.21875q0 1.765625 -1.046875 2.921875q-1.046875 1.15625 -2.71875 1.328125zm-3.0625 -10.375717q-2.359375 0 -3.796875 -0.484375q-1.453125 -0.484375 -2.234375 -1.4375q-0.78125 -0.96875 -0.78125 -2.421875q0 -1.078125 0.4375 -1.890625q0.421875 -0.8125 1.25 -1.328125q0.8125 -0.53125 1.984375 -0.828125q1.15625 -0.3125 3.140625 -0.3125q2.359375 0 3.8125 0.484375q1.4375 0.484375 2.234375 1.453125q0.78125 0.953125 0.78125 2.421875q0 1.921875 -1.390625 3.03125q-1.671875 1.3125 -5.4375 1.3125zm0 -1.671875q3.296875 0 4.390625 -0.765625q1.078125 -0.78125 1.078125 -1.90625q0 -1.140625 -1.09375 -1.90625q-1.09375 -0.765625 -4.375 -0.765625q-3.296875 0 -4.375 0.765625q-1.078125 0.765625 -1.078125 1.921875q0 1.125 0.953125 1.796875q1.21875 0.859375 4.5 0.859375zm-5.0 -9.047592l-1.890625 0l0 -1.765625l1.5 0q1.21875 0 1.75 0.28125q0.75 0.390625 1.109375 1.21875l-0.640625 0.40625q-0.203125 -0.484375 -0.625 -0.71875q-0.4375 -0.25 -1.203125 -0.28125l0 0.859375z" fill-rule="nonzero"/><path fill="#000000" fill-opacity="0.0" d="m426.65485 53.485565l48.53543 0l0 42.015747l-48.53543 0z" fill-rule="evenodd"/><path fill="#999999" d="m436.4361 76.87431l1.640625 -0.21875q0.28125 1.40625 0.953125 2.015625q0.6875 0.609375 1.65625 0.609375q1.15625 0 1.953125 -0.796875q0.796875 -0.796875 0.796875 -1.984375q0 -1.125 -0.734375 -1.859375q-0.734375 -0.734375 -1.875 -0.734375q-0.46875 0 -1.15625 0.171875l0.1875 -1.4375q0.15625 0.015625 0.265625 0.015625q1.046875 0 1.875 -0.546875q0.84375 -0.546875 0.84375 -1.671875q0 -0.90625 -0.609375 -1.5q-0.609375 -0.59375 -1.578125 -0.59375q-0.953125 0 -1.59375 0.609375q-0.640625 0.59375 -0.8125 1.796875l-1.640625 -0.296875q0.296875 -1.640625 1.359375 -2.546875q1.0625 -0.90625 2.65625 -0.90625q1.09375 0 2.0 0.46875q0.921875 0.46875 1.40625 1.28125q0.5 0.8125 0.5 1.71875q0 0.859375 -0.46875 1.578125q-0.46875 0.703125 -1.375 1.125q1.1875 0.28125 1.84375 1.140625q0.65625 0.859375 0.65625 2.15625q0 1.734375 -1.28125 2.953125q-1.265625 1.21875 -3.21875 1.21875q-1.765625 0 -2.921875 -1.046875q-1.15625 -1.046875 -1.328125 -2.71875zm10.375732 -3.0625q0 -2.359375 0.484375 -3.796875q0.484375 -1.453125 1.4375 -2.234375q0.96875 -0.78125 2.421875 -0.78125q1.078125 0 1.890625 0.4375q0.8125 0.421875 1.328125 1.25q0.53125 0.8125 0.828125 1.984375q0.3125 1.15625 0.3125 3.140625q0 2.359375 -0.484375 3.8125q-0.484375 1.4375 -1.453125 2.234375q-0.953125 0.78125 -2.421875 0.78125q-1.921875 0 -3.03125 -1.390625q-1.3125 -1.671875 -1.3125 -5.4375zm1.671875 0q0 3.296875 0.765625 4.390625q0.78125 1.078125 1.90625 1.078125q1.140625 0 1.90625 -1.09375q0.765625 -1.09375 0.765625 -4.375q0 -3.296875 -0.765625 -4.375q-0.765625 -1.078125 -1.921875 -1.078125q-1.125 0 -1.796875 0.953125q-0.859375 1.21875 -0.859375 4.5zm9.047577 -5.0l0 -1.890625l1.765625 0l0 1.5q0 1.21875 -0.28125 1.75q-0.390625 0.75 -1.21875 1.109375l-0.40625 -0.640625q0.484375 -0.203125 0.71875 -0.625q0.25 -0.4375 0.28125 -1.203125l-0.859375 0z" fill-rule="nonzero"/></g></svg>